<?xml version="1.0" encoding="utf-8"?>
<!-- Generator: Adobe Illustrator 17.0.0, SVG Export Plug-In . SVG Version: 6.00 Build 0)  -->
<!DOCTYPE svg PUBLIC "-//W3C//DTD SVG 1.1//EN" "http://www.w3.org/Graphics/SVG/1.1/DTD/svg11.dtd">
<svg version="1.1" id="Layer_1" xmlns="http://www.w3.org/2000/svg" xmlns:xlink="http://www.w3.org/1999/xlink" x="0px" y="0px"
	 width="20px" height="20px" viewBox="0 0 20 20" enable-background="new 0 0 20 20" xml:space="preserve">
<g>
	<path d="M6.693,11.356c0.627-0.627,0.371-1.159,0.219-1.311c-0.06-0.061-0.157-0.061-0.218,0c-0.06,0.061-0.06,0.158,0,0.219
		c0.084,0.085,0.226,0.428-0.219,0.873c-0.06,0.061-0.06,0.157,0,0.219C6.535,11.417,6.632,11.417,6.693,11.356z"/>
	<path d="M7.987,13.302c0.05,0.07,0.145,0.089,0.215,0.038c0.573-0.408,1.08-0.053,1.331,0.198c0.06,0.062,0.158,0.06,0.218,0
		s0.061-0.157,0-0.218c-0.544-0.545-1.176-0.631-1.73-0.235C7.951,13.135,7.938,13.234,7.987,13.302z"/>
	<path d="M9.969,8.516c-0.577,0.578-1.132,0.397-1.31,0.219c-0.06-0.061-0.157-0.061-0.218,0c-0.06,0.06-0.06,0.158,0,0.218
		c0.249,0.248,1.004,0.524,1.746-0.219c0.06-0.06,0.06-0.157,0-0.218C10.127,8.455,10.03,8.455,9.969,8.516z"/>
	<path d="M19.542,6.091L18.32,4.869c-0.143-0.143-0.369-0.155-0.525-0.029c-0.354,0.283-0.747,0.426-1.172,0.426
		c-1.021,0-1.852-0.831-1.852-1.852c0-0.425,0.143-0.819,0.426-1.172c0.126-0.157,0.113-0.383-0.029-0.525l-1.223-1.222
		c-0.416-0.416-1.166-0.415-1.58-0.001l-2.114,2.1l0.542,0.542c0.154,0.154,0.154,0.403,0,0.557
		c-0.077,0.076-0.178,0.115-0.279,0.115c-0.101,0-0.202-0.039-0.279-0.115L9.693,3.15l-9.23,9.167
		c-0.208,0.209-0.322,0.49-0.322,0.791c0,0.304,0.115,0.584,0.322,0.791l1.222,1.223c0.142,0.143,0.367,0.154,0.525,0.029
		c0.375-0.301,0.805-0.467,1.212-0.467c1.021,0,1.852,0.832,1.852,1.853c0,0.446-0.16,0.872-0.45,1.194
		c-0.141,0.156-0.134,0.395,0.014,0.543l1.222,1.222c0.208,0.208,0.489,0.321,0.791,0.321s0.583-0.113,0.791-0.321l9.199-9.199
		l-0.534-0.534c-0.154-0.153-0.154-0.403,0-0.557c0.153-0.154,0.402-0.154,0.557,0l0.535,0.534l2.088-2.088
		c0.217-0.173,0.352-0.433,0.371-0.716C19.879,6.62,19.764,6.313,19.542,6.091z M11.339,4.239c0.154-0.154,0.403-0.154,0.558,0
		l0.553,0.553c0.154,0.153,0.154,0.403,0,0.557c-0.077,0.077-0.179,0.115-0.279,0.115c-0.1,0-0.202-0.039-0.278-0.115l-0.554-0.553
		C11.186,4.643,11.186,4.393,11.339,4.239z M11.279,14.193c-0.209,0.211-0.686,0.686-1.286,0.406
		c-0.325,0.278-0.756,0.393-1.122,0.291c-0.292-0.08-0.513-0.287-0.634-0.594c-0.354,0.13-0.702,0.106-0.997-0.068
		c-0.272-0.16-0.475-0.441-0.556-0.754c0.073-0.25,0.221-0.582,0.512-0.873c0.447-0.449,0.939-0.55,0.945-0.55
		c0.084-0.016,0.139-0.094,0.123-0.178c-0.016-0.084-0.094-0.14-0.178-0.123c-0.024,0.004-0.59,0.112-1.109,0.631
		c-0.279,0.28-0.443,0.584-0.539,0.847c-0.682-0.311-1.145-0.778-1.314-1.355c-0.131-0.45-0.062-0.932,0.188-1.299
		c-0.169-0.41-0.161-1.169,0.509-1.839c0.137-0.137,0.272-0.216,0.413-0.241l5.267,5.266C11.476,13.918,11.404,14.068,11.279,14.193
		z M12.567,11.793c-0.246,0.106-0.948,0.335-1.506-0.222c-0.06-0.062-0.158-0.061-0.218,0c-0.06,0.06-0.061,0.156,0,0.218
		c0.509,0.509,1.173,0.517,1.679,0.349c0.11,0.477-0.131,0.944-0.364,1.176l-0.005,0.004c-0.125,0.125-0.28,0.196-0.436,0.22
		L6.453,8.274c0.024-0.14,0.104-0.275,0.241-0.413c0.671-0.67,1.429-0.677,1.838-0.51C8.9,7.102,9.381,7.031,9.833,7.163
		c0.58,0.169,1.051,0.638,1.361,1.327c0.05,0.286,0.052,0.932-0.678,1.662c-0.06,0.06-0.061,0.157,0,0.218
		c0.061,0.061,0.157,0.061,0.219,0c0.633-0.633,0.781-1.224,0.787-1.627c0.269,0.086,0.509,0.261,0.655,0.499
		c0.188,0.306,0.216,0.673,0.075,1.044c0.335,0.141,0.532,0.346,0.594,0.606C12.911,11.165,12.813,11.478,12.567,11.793z
		 M14.109,7.008c-0.077,0.077-0.178,0.115-0.279,0.115s-0.202-0.039-0.279-0.115l-0.553-0.553c-0.154-0.154-0.154-0.403,0-0.557
		s0.402-0.154,0.557,0l0.553,0.553C14.264,6.605,14.264,6.854,14.109,7.008z M15.77,8.668c-0.078,0.077-0.179,0.115-0.279,0.115
		c-0.102,0-0.202-0.039-0.279-0.115l-0.553-0.553c-0.154-0.153-0.154-0.403,0-0.557s0.402-0.154,0.557,0l0.553,0.553
		C15.923,8.264,15.923,8.514,15.77,8.668z"/>
</g>
</svg>
