<?xml version="1.0" encoding="utf-8"?>
<!-- Generator: Adobe Illustrator 16.0.4, SVG Export Plug-In . SVG Version: 6.00 Build 0)  -->
<!DOCTYPE svg PUBLIC "-//W3C//DTD SVG 1.1//EN" "http://www.w3.org/Graphics/SVG/1.1/DTD/svg11.dtd">
<svg version="1.1" id="Layer_1" xmlns="http://www.w3.org/2000/svg" xmlns:xlink="http://www.w3.org/1999/xlink" x="0px" y="0px"
	 width="20px" height="20px" viewBox="0 0 20 20" enable-background="new 0 0 20 20" xml:space="preserve">
<path d="M19.542,6.091L18.32,4.869c-0.143-0.143-0.369-0.155-0.525-0.029c-0.354,0.283-0.747,0.426-1.172,0.426
	c-1.021,0-1.852-0.831-1.852-1.852c0-0.425,0.143-0.819,0.426-1.172c0.126-0.157,0.113-0.383-0.029-0.525l-1.223-1.222
	c-0.416-0.416-1.166-0.415-1.58-0.001l-2.114,2.1l0.542,0.542c0.154,0.154,0.154,0.403,0,0.557
	c-0.077,0.076-0.178,0.115-0.279,0.115c-0.101,0-0.202-0.039-0.279-0.115L9.693,3.15l-9.23,9.167
	c-0.208,0.209-0.322,0.49-0.322,0.791c0,0.304,0.115,0.584,0.322,0.791l1.222,1.223c0.142,0.143,0.367,0.154,0.525,0.029
	c0.375-0.301,0.805-0.467,1.212-0.467c1.021,0,1.852,0.832,1.852,1.853c0,0.446-0.16,0.872-0.45,1.194
	c-0.141,0.156-0.134,0.395,0.014,0.543l1.222,1.222c0.208,0.208,0.489,0.321,0.791,0.321c0.302,0,0.583-0.113,0.791-0.321
	l9.199-9.199l-0.534-0.534c-0.154-0.153-0.154-0.403,0-0.557c0.153-0.154,0.402-0.154,0.557,0l0.535,0.534l2.088-2.088
	c0.217-0.173,0.352-0.433,0.371-0.716C19.879,6.62,19.764,6.313,19.542,6.091z M12.45,5.349c-0.077,0.077-0.179,0.115-0.279,0.115
	s-0.202-0.039-0.278-0.115l-0.554-0.553c-0.153-0.153-0.153-0.403,0-0.557c0.154-0.154,0.403-0.154,0.558,0l0.553,0.553
	C12.604,4.945,12.604,5.195,12.45,5.349z M14.109,7.008c-0.077,0.077-0.178,0.115-0.279,0.115s-0.202-0.039-0.279-0.115
	l-0.553-0.553c-0.154-0.154-0.154-0.403,0-0.557s0.402-0.154,0.557,0l0.553,0.553C14.264,6.605,14.264,6.854,14.109,7.008z
	 M15.77,8.668c-0.078,0.077-0.179,0.115-0.279,0.115c-0.102,0-0.202-0.039-0.279-0.115l-0.553-0.553
	c-0.154-0.153-0.154-0.403,0-0.557c0.154-0.154,0.402-0.154,0.557,0l0.553,0.553C15.923,8.264,15.923,8.514,15.77,8.668z"/>
<path fill="#FFFFFF" d="M5.821,8.735c-0.67,0.67-0.678,1.429-0.509,1.839c-0.25,0.367-0.319,0.849-0.188,1.299
	c0.169,0.577,0.632,1.044,1.314,1.355c0.096-0.263,0.26-0.567,0.539-0.847c0.519-0.519,1.085-0.627,1.109-0.631
	c0.084-0.017,0.162,0.039,0.178,0.123c0.016,0.084-0.039,0.162-0.123,0.178c-0.006,0-0.498,0.101-0.945,0.55
	c-0.291,0.291-0.439,0.623-0.512,0.873c0.081,0.313,0.284,0.594,0.556,0.754c0.295,0.174,0.643,0.198,0.997,0.068
	c0.121,0.307,0.342,0.514,0.634,0.594c0.366,0.102,0.797-0.013,1.122-0.291c0.6,0.28,1.077-0.195,1.286-0.406
	c0.125-0.125,0.197-0.275,0.222-0.433L6.234,8.494C6.093,8.519,5.958,8.598,5.821,8.735z M6.694,7.861
	C6.557,7.999,6.477,8.134,6.453,8.274l5.264,5.264c0.156-0.024,0.311-0.095,0.436-0.22l0.005-0.004
	c0.233-0.232,0.474-0.699,0.364-1.176c-0.506,0.168-1.17,0.16-1.679-0.349c-0.061-0.062-0.06-0.158,0-0.218
	c0.06-0.061,0.158-0.062,0.218,0c0.558,0.557,1.26,0.328,1.506,0.222c0.246-0.315,0.344-0.628,0.279-0.901
	c-0.062-0.26-0.259-0.465-0.594-0.606c0.141-0.371,0.113-0.738-0.075-1.044c-0.146-0.238-0.386-0.413-0.655-0.499
	c-0.006,0.403-0.154,0.994-0.787,1.627c-0.062,0.061-0.158,0.061-0.219,0s-0.06-0.158,0-0.218c0.73-0.73,0.728-1.376,0.678-1.662
	c-0.31-0.689-0.781-1.158-1.361-1.327C9.381,7.031,8.9,7.102,8.532,7.351C8.123,7.184,7.365,7.191,6.694,7.861z M6.694,10.045
	c0.061-0.061,0.158-0.061,0.218,0c0.152,0.152,0.408,0.684-0.219,1.311c-0.061,0.061-0.158,0.061-0.218,0
	c-0.06-0.062-0.06-0.158,0-0.219c0.445-0.445,0.303-0.788,0.219-0.873C6.634,10.203,6.634,10.106,6.694,10.045z M8.441,8.735
	c0.061-0.061,0.158-0.061,0.218,0c0.178,0.178,0.733,0.359,1.31-0.219c0.061-0.061,0.158-0.061,0.218,0s0.06,0.158,0,0.218
	C9.445,9.477,8.69,9.201,8.441,8.953C8.381,8.893,8.381,8.795,8.441,8.735z M8.021,13.085c0.554-0.396,1.186-0.31,1.73,0.235
	c0.061,0.061,0.06,0.158,0,0.218s-0.158,0.062-0.218,0c-0.251-0.251-0.758-0.606-1.331-0.198c-0.07,0.051-0.165,0.032-0.215-0.038
	C7.938,13.234,7.951,13.135,8.021,13.085z"/>
</svg>
