<?xml version="1.0" encoding="utf-8"?>
<!-- Generator: Adobe Illustrator 16.0.4, SVG Export Plug-In . SVG Version: 6.00 Build 0)  -->
<!DOCTYPE svg PUBLIC "-//W3C//DTD SVG 1.1//EN" "http://www.w3.org/Graphics/SVG/1.1/DTD/svg11.dtd">
<svg version="1.1" id="Layer_1" xmlns="http://www.w3.org/2000/svg" xmlns:xlink="http://www.w3.org/1999/xlink" x="0px" y="0px"
	 width="20px" height="20px" viewBox="0 0 20 20" enable-background="new 0 0 20 20" xml:space="preserve">
<path fill="#FFFFFF" d="M5.821,8.735c-0.67,0.67-0.678,1.429-0.509,1.839c-0.25,0.367-0.319,0.849-0.188,1.299
	c0.169,0.577,0.632,1.044,1.314,1.355c0.096-0.263,0.26-0.567,0.539-0.847c0.519-0.519,1.085-0.627,1.109-0.631
	c0.084-0.017,0.162,0.039,0.178,0.123c0.016,0.084-0.039,0.162-0.123,0.178c-0.006,0-0.498,0.101-0.945,0.55
	c-0.291,0.291-0.439,0.623-0.512,0.873c0.081,0.313,0.284,0.594,0.556,0.754c0.295,0.174,0.643,0.198,0.997,0.068
	c0.121,0.307,0.342,0.514,0.634,0.594c0.366,0.102,0.797-0.013,1.122-0.291c0.6,0.28,1.077-0.195,1.286-0.406
	c0.125-0.125,0.197-0.275,0.222-0.433L6.234,8.494C6.093,8.519,5.958,8.598,5.821,8.735z M6.694,7.861
	C6.557,7.999,6.477,8.134,6.453,8.274l5.264,5.264c0.156-0.024,0.311-0.095,0.436-0.22l0.005-0.004
	c0.233-0.232,0.474-0.699,0.364-1.176c-0.506,0.168-1.17,0.16-1.679-0.349c-0.061-0.062-0.06-0.158,0-0.218
	c0.06-0.061,0.158-0.062,0.218,0c0.558,0.557,1.26,0.328,1.506,0.222c0.246-0.315,0.344-0.628,0.279-0.901
	c-0.062-0.26-0.259-0.465-0.594-0.606c0.141-0.371,0.113-0.738-0.075-1.044c-0.146-0.238-0.386-0.413-0.655-0.499
	c-0.006,0.403-0.154,0.994-0.787,1.627c-0.062,0.061-0.158,0.061-0.219,0s-0.06-0.158,0-0.218c0.73-0.73,0.728-1.376,0.678-1.662
	c-0.31-0.689-0.781-1.158-1.361-1.327C9.381,7.031,8.9,7.102,8.532,7.351C8.123,7.184,7.365,7.191,6.694,7.861z M6.694,10.045
	c0.061-0.061,0.158-0.061,0.218,0c0.152,0.152,0.408,0.684-0.219,1.311c-0.061,0.061-0.158,0.061-0.218,0
	c-0.06-0.062-0.06-0.158,0-0.219c0.445-0.445,0.303-0.788,0.219-0.873C6.634,10.203,6.634,10.106,6.694,10.045z M8.441,8.735
	c0.061-0.061,0.158-0.061,0.218,0c0.178,0.178,0.733,0.359,1.31-0.219c0.061-0.061,0.158-0.061,0.218,0s0.06,0.158,0,0.218
	C9.445,9.477,8.69,9.201,8.441,8.953C8.381,8.893,8.381,8.795,8.441,8.735z M8.021,13.085c0.554-0.396,1.186-0.31,1.73,0.235
	c0.061,0.061,0.06,0.158,0,0.218s-0.158,0.062-0.218,0c-0.251-0.251-0.758-0.606-1.331-0.198c-0.07,0.051-0.165,0.032-0.215-0.038
	C7.938,13.234,7.951,13.135,8.021,13.085z"/>
<path fill="none" d="M14.658,7.558c-0.154,0.154-0.154,0.404,0,0.557l0.553,0.553c0.077,0.076,0.178,0.115,0.279,0.115
	c0.091,0,0.18-0.036,0.255-0.099l-0.996-1.187C14.718,7.515,14.686,7.531,14.658,7.558z"/>
<path fill="none" d="M12.942,5.982c-0.088,0.15-0.074,0.344,0.056,0.473l0.553,0.553c0.077,0.076,0.178,0.115,0.279,0.115
	s0.202-0.038,0.279-0.115c0.005-0.005,0.006-0.011,0.011-0.016l-1.007-0.806L12.942,5.982z"/>
<path fill="none" d="M11.32,4.267c-0.13,0.155-0.127,0.384,0.019,0.529l0.554,0.553c0.076,0.076,0.178,0.115,0.278,0.115
	c0.091,0,0.18-0.036,0.254-0.098l-0.844-1.004L11.32,4.267z"/>
<path d="M16.251,9.288l-0.506-0.604c-0.075,0.063-0.164,0.099-0.255,0.099c-0.102,0-0.202-0.039-0.279-0.115l-0.553-0.553
	c-0.154-0.153-0.154-0.403,0-0.557c0.027-0.027,0.06-0.043,0.091-0.061l-0.004-0.005l-0.625-0.5
	c-0.005,0.005-0.006,0.011-0.011,0.016c-0.077,0.077-0.178,0.115-0.279,0.115s-0.202-0.039-0.279-0.115l-0.553-0.553
	c-0.13-0.129-0.144-0.323-0.056-0.473l-0.518-0.616c-0.074,0.062-0.163,0.098-0.254,0.098c-0.101,0-0.202-0.039-0.278-0.115
	l-0.554-0.553c-0.146-0.145-0.148-0.374-0.019-0.529l-0.396-0.144l-0.222-0.371c-0.06,0.033-0.123,0.056-0.189,0.056
	c-0.101,0-0.202-0.039-0.279-0.115L9.693,3.15l-9.23,9.167c-0.208,0.209-0.322,0.49-0.322,0.791c0,0.304,0.115,0.584,0.322,0.791
	l1.222,1.223c0.142,0.143,0.367,0.154,0.525,0.029c0.375-0.301,0.805-0.467,1.212-0.467c1.021,0,1.852,0.832,1.852,1.853
	c0,0.446-0.16,0.872-0.45,1.194c-0.141,0.156-0.134,0.395,0.014,0.543l1.222,1.222c0.208,0.208,0.489,0.321,0.791,0.321
	c0.302,0,0.583-0.113,0.791-0.321l9.199-9.199l-0.534-0.534C16.177,9.633,16.163,9.439,16.251,9.288L16.251,9.288z"/>
<path d="M19.542,6.091L18.32,4.869c-0.143-0.143-0.369-0.155-0.525-0.029c-0.354,0.283-0.747,0.426-1.172,0.426
	c-1.021,0-1.852-0.83-1.852-1.852c0-0.425,0.143-0.819,0.426-1.172c0.126-0.157,0.113-0.383-0.029-0.525l-1.223-1.222
	c-0.416-0.416-1.166-0.415-1.58-0.001l-2.114,2.1l0.542,0.542c0.154,0.154,0.154,0.403,0,0.558c-0.026,0.025-0.059,0.041-0.09,0.059
	l0.222,0.371l0.396,0.145c0.008-0.01,0.011-0.02,0.019-0.028c0.154-0.154,0.403-0.154,0.558,0l0.553,0.553
	c0.154,0.153,0.154,0.403,0.001,0.558c-0.008,0.007-0.018,0.01-0.025,0.017l0.518,0.616c0.017-0.029,0.031-0.06,0.056-0.084
	c0.154-0.154,0.402-0.154,0.557,0l0.553,0.553c0.151,0.148,0.153,0.386,0.013,0.541l0.625,0.5l0.004,0.006
	c0.15-0.084,0.339-0.067,0.466,0.061l0.553,0.553c0.155,0.152,0.155,0.402,0.002,0.557c-0.008,0.008-0.017,0.01-0.024,0.017
	l0.506,0.604l0,0c0.017-0.028,0.031-0.059,0.056-0.083c0.153-0.154,0.402-0.154,0.557,0l0.535,0.534l2.088-2.089
	c0.217-0.172,0.352-0.433,0.371-0.715C19.879,6.62,19.764,6.312,19.542,6.091z"/>
<path fill="#FFFFFF" d="M5.82,8.734c-0.67,0.671-0.678,1.43-0.509,1.84c-0.25,0.367-0.319,0.849-0.188,1.299
	c0.169,0.577,0.632,1.044,1.314,1.355c0.096-0.263,0.26-0.567,0.539-0.847c0.519-0.519,1.085-0.627,1.109-0.631
	c0.084-0.017,0.162,0.039,0.178,0.123c0.016,0.084-0.039,0.162-0.123,0.178c-0.006,0-0.498,0.101-0.945,0.55
	c-0.291,0.291-0.439,0.623-0.512,0.873c0.081,0.313,0.284,0.594,0.556,0.754c0.295,0.174,0.643,0.198,0.997,0.068
	c0.121,0.307,0.342,0.514,0.634,0.594c0.366,0.102,0.797-0.013,1.122-0.291c0.6,0.28,1.077-0.195,1.286-0.406
	c0.125-0.125,0.197-0.275,0.222-0.433L6.233,8.494C6.092,8.52,5.957,8.598,5.82,8.734z M6.693,7.861
	C6.556,7.999,6.476,8.134,6.452,8.273l5.264,5.265c0.156-0.024,0.311-0.095,0.436-0.22l0.005-0.004
	c0.233-0.232,0.474-0.699,0.364-1.176c-0.506,0.168-1.17,0.16-1.679-0.349c-0.061-0.062-0.06-0.158,0-0.218
	c0.06-0.061,0.158-0.062,0.218,0c0.558,0.557,1.26,0.328,1.506,0.222c0.246-0.315,0.344-0.628,0.279-0.901
	c-0.062-0.26-0.259-0.465-0.594-0.606c0.141-0.371,0.113-0.738-0.075-1.044c-0.146-0.238-0.386-0.413-0.655-0.499
	c-0.006,0.403-0.154,0.993-0.787,1.627c-0.062,0.062-0.158,0.062-0.219,0s-0.06-0.158,0-0.218c0.73-0.73,0.728-1.377,0.678-1.662
	c-0.31-0.689-0.781-1.158-1.361-1.327c-0.451-0.132-0.932-0.062-1.3,0.188C8.122,7.184,7.364,7.191,6.693,7.861z M6.693,10.045
	c0.061-0.061,0.158-0.061,0.218,0c0.152,0.152,0.408,0.684-0.219,1.311c-0.061,0.061-0.158,0.061-0.218,0
	c-0.06-0.062-0.06-0.158,0-0.219c0.445-0.445,0.303-0.787,0.219-0.873C6.633,10.203,6.633,10.105,6.693,10.045z M8.44,8.734
	c0.061-0.061,0.158-0.061,0.218,0c0.178,0.179,0.733,0.359,1.31-0.219c0.061-0.061,0.158-0.061,0.218,0
	c0.06,0.062,0.06,0.158,0,0.219C9.444,9.477,8.689,9.201,8.44,8.953C8.38,8.893,8.38,8.795,8.44,8.734z M8.02,13.085
	c0.554-0.396,1.186-0.31,1.73,0.235c0.061,0.061,0.06,0.158,0,0.218s-0.158,0.062-0.218,0c-0.251-0.251-0.758-0.606-1.331-0.198
	c-0.07,0.051-0.165,0.032-0.215-0.038C7.937,13.234,7.95,13.135,8.02,13.085z"/>
</svg>
