<?xml version="1.0" encoding="utf-8"?>
<!-- Generator: Adobe Illustrator 17.0.0, SVG Export Plug-In . SVG Version: 6.00 Build 0)  -->
<!DOCTYPE svg PUBLIC "-//W3C//DTD SVG 1.1//EN" "http://www.w3.org/Graphics/SVG/1.1/DTD/svg11.dtd">
<svg version="1.1" id="Layer_1" xmlns="http://www.w3.org/2000/svg" xmlns:xlink="http://www.w3.org/1999/xlink" x="0px" y="0px"
	 width="20px" height="20px" viewBox="0 0 20 20" enable-background="new 0 0 20 20" xml:space="preserve">
<g>
	<path d="M19.542,6.091L18.32,4.869c-0.142-0.143-0.369-0.155-0.525-0.029c-0.353,0.283-0.747,0.426-1.172,0.426
		c-1.021,0-1.852-0.831-1.852-1.852c0-0.425,0.143-0.819,0.426-1.172c0.126-0.157,0.113-0.383-0.029-0.525l-1.222-1.222
		c-0.416-0.416-1.167-0.415-1.581-0.001l-2.114,2.1l0.542,0.542c0.154,0.154,0.154,0.403,0,0.557
		c-0.077,0.076-0.178,0.115-0.279,0.115s-0.202-0.039-0.279-0.115L9.693,3.15l-9.23,9.167c-0.208,0.208-0.322,0.489-0.322,0.791
		c0,0.303,0.115,0.583,0.322,0.791l1.222,1.222c0.142,0.142,0.367,0.155,0.525,0.029c0.375-0.3,0.805-0.466,1.212-0.466
		c1.021,0,1.852,0.831,1.852,1.852c0,0.447-0.16,0.872-0.45,1.195c-0.141,0.156-0.134,0.394,0.014,0.542l1.222,1.222
		c0.208,0.208,0.489,0.322,0.791,0.322s0.583-0.114,0.791-0.322l9.199-9.199l-0.535-0.534c-0.154-0.153-0.154-0.403,0-0.557
		s0.403-0.154,0.557,0l0.535,0.534l2.088-2.088c0.217-0.173,0.352-0.433,0.372-0.716C19.879,6.62,19.764,6.313,19.542,6.091z
		 M12.45,5.349c-0.077,0.077-0.178,0.115-0.279,0.115s-0.202-0.039-0.279-0.115l-0.553-0.553c-0.154-0.153-0.154-0.403,0-0.557
		c0.154-0.154,0.403-0.154,0.557,0l0.553,0.553C12.604,4.945,12.604,5.195,12.45,5.349z M14.109,7.008
		c-0.077,0.077-0.178,0.115-0.279,0.115s-0.202-0.039-0.279-0.115l-0.553-0.553c-0.154-0.154-0.154-0.403,0-0.557
		c0.154-0.154,0.403-0.154,0.557,0l0.553,0.553C14.264,6.605,14.264,6.854,14.109,7.008z M15.769,8.668
		c-0.077,0.077-0.178,0.115-0.279,0.115c-0.101,0-0.202-0.039-0.279-0.115l-0.553-0.553c-0.154-0.153-0.154-0.403,0-0.557
		s0.403-0.154,0.557,0l0.553,0.553C15.923,8.264,15.923,8.514,15.769,8.668z"/>
	<path fill="#FFFFFF" d="M5.821,8.735c-0.67,0.67-0.678,1.429-0.509,1.839c-0.25,0.368-0.319,0.849-0.188,1.299
		c0.169,0.577,0.632,1.044,1.314,1.355c0.096-0.262,0.26-0.567,0.539-0.846c0.519-0.519,1.085-0.627,1.109-0.631
		c0.084-0.016,0.162,0.039,0.178,0.123c0.016,0.084-0.039,0.162-0.123,0.178c-0.006,0-0.498,0.101-0.945,0.549
		c-0.291,0.291-0.439,0.624-0.512,0.874c0.081,0.313,0.284,0.593,0.556,0.754c0.295,0.174,0.643,0.198,0.997,0.068
		c0.121,0.306,0.342,0.513,0.634,0.593c0.366,0.102,0.797-0.012,1.122-0.29c0.6,0.28,1.077-0.196,1.286-0.406
		c0.126-0.126,0.198-0.276,0.222-0.433L6.234,8.494C6.093,8.519,5.958,8.598,5.821,8.735z M6.694,7.861
		C6.557,7.999,6.477,8.134,6.453,8.274l5.264,5.264c0.156-0.024,0.31-0.094,0.436-0.219l0.004-0.004
		c0.233-0.233,0.474-0.7,0.365-1.177c-0.506,0.169-1.171,0.161-1.679-0.348c-0.061-0.061-0.06-0.158,0-0.218
		c0.06-0.06,0.158-0.061,0.218,0c0.557,0.557,1.259,0.329,1.505,0.222c0.246-0.315,0.344-0.628,0.28-0.901
		c-0.062-0.26-0.259-0.465-0.594-0.607c0.14-0.371,0.113-0.738-0.075-1.044c-0.146-0.238-0.386-0.413-0.655-0.499
		c-0.006,0.403-0.155,0.994-0.788,1.627c-0.061,0.061-0.158,0.061-0.218,0c-0.061-0.061-0.06-0.158,0-0.218
		c0.73-0.73,0.727-1.376,0.678-1.662c-0.31-0.689-0.782-1.158-1.362-1.327C9.381,7.031,8.9,7.102,8.532,7.351
		C8.123,7.184,7.365,7.191,6.694,7.861z M6.694,10.045c0.061-0.061,0.158-0.061,0.218,0c0.152,0.152,0.408,0.684-0.219,1.31
		c-0.061,0.061-0.158,0.061-0.218,0s-0.06-0.158,0-0.218c0.445-0.445,0.303-0.788,0.219-0.873
		C6.634,10.203,6.634,10.106,6.694,10.045z M8.441,8.735c0.061-0.061,0.158-0.061,0.218,0c0.178,0.178,0.733,0.359,1.31-0.219
		c0.061-0.061,0.158-0.061,0.218,0s0.06,0.158,0,0.218C9.445,9.477,8.69,9.201,8.441,8.953C8.381,8.893,8.381,8.795,8.441,8.735z
		 M8.021,13.085c0.554-0.396,1.186-0.309,1.73,0.235c0.061,0.061,0.06,0.158,0,0.218c-0.06,0.06-0.158,0.061-0.218,0
		c-0.251-0.251-0.758-0.607-1.331-0.198c-0.07,0.05-0.165,0.032-0.215-0.038C7.938,13.235,7.951,13.135,8.021,13.085z"/>
</g>
</svg>
